<?xml version="1.0" standalone="no"?>
<!DOCTYPE svg PUBLIC "-//W3C//DTD SVG 20010904//EN"
 "http://www.w3.org/TR/2001/REC-SVG-20010904/DTD/svg10.dtd">
<svg version="1.0" xmlns="http://www.w3.org/2000/svg"
 width="800.000000pt" height="800.000000pt" viewBox="0 0 800.000000 800.000000"
 preserveAspectRatio="xMidYMid meet">

<g transform="translate(0.000000,800.000000) scale(0.100000,-0.100000)"
fill="#000000" stroke="none">
<path d="M0 4000 l0 -4000 4000 0 4000 0 0 4000 0 4000 -4000 0 -4000 0 0
-4000z m4715 2201 c484 -271 710 -402 731 -426 17 -19 36 -52 42 -73 18 -58
17 -792 0 -792 -7 0 -136 41 -285 91 l-273 91 0 189 0 190 -464 231 -465 230
-747 -421 c-411 -232 -751 -421 -755 -421 -13 0 -11 543 2 595 6 24 25 60 43
80 23 27 216 140 741 435 391 219 715 397 720 396 6 -2 325 -180 710 -395z
m-388 -1137 c587 -179 1071 -329 1075 -332 4 -4 -142 -91 -325 -194 l-332
-187 -1064 324 c-586 178 -1074 328 -1084 332 -16 8 40 43 309 196 181 103
334 187 341 187 6 0 492 -147 1080 -326z m-1537 -362 l265 -89 3 -189 2 -189
468 -234 c466 -233 468 -234 497 -218 17 8 354 198 750 421 l720 406 3 -217
c5 -312 -15 -382 -142 -508 -67 -66 -109 -91 -705 -425 -349 -195 -639 -356
-646 -358 -17 -4 -1303 721 -1352 762 -51 44 -103 122 -134 201 -23 58 -24 70
-27 398 -3 324 -3 339 15 333 10 -3 137 -46 283 -94z m-1771 -2211 c35 -25 70
-90 71 -128 0 -21 -5 -23 -55 -23 -30 0 -55 5 -55 10 0 6 -9 19 -20 30 -18 18
-33 20 -140 20 -107 0 -122 -2 -140 -20 -24 -24 -25 -38 -4 -68 14 -21 22 -22
140 -22 142 0 173 -9 221 -63 34 -39 53 -91 53 -147 0 -50 -42 -133 -81 -161
-31 -22 -45 -24 -176 -27 -154 -4 -178 2 -228 56 -24 26 -36 53 -49 115 -6 27
-6 27 48 27 50 0 54 -2 66 -30 7 -17 21 -35 31 -40 10 -6 65 -10 124 -10 99 0
107 2 130 25 27 26 31 54 13 88 -22 42 -38 46 -173 47 -110 0 -135 3 -161 19
-109 67 -103 254 10 311 37 19 56 21 191 18 140 -3 152 -5 184 -27z m500 13
c73 -21 151 -98 180 -177 41 -113 22 -246 -48 -335 -130 -164 -374 -128 -465
67 -17 37 -21 65 -21 146 0 89 3 105 27 150 37 70 96 124 160 146 66 23 100
23 167 3z m381 -214 l0 -231 25 -24 c24 -24 28 -25 180 -25 l155 0 0 -61 0
-60 -177 3 c-169 3 -180 4 -212 27 -19 14 -44 46 -57 75 -23 49 -24 60 -24
289 l0 237 55 0 55 0 0 -230z m492 48 c3 -163 6 -187 26 -224 24 -47 72 -91
108 -100 74 -19 157 24 193 99 19 39 21 61 21 225 l0 182 56 0 56 0 -4 -207
-3 -208 -34 -63 c-56 -103 -134 -152 -244 -152 -107 0 -192 56 -249 163 -21
39 -23 56 -26 255 l-3 212 49 0 50 0 4 -182z m1108 122 l0 -60 -110 0 -110 0
0 -255 0 -255 -55 0 -55 0 0 255 0 255 -115 0 -115 0 0 60 0 60 280 0 280 0 0
-60z m200 -255 l0 -315 -55 0 -55 0 0 315 0 315 55 0 55 0 0 -315z m471 285
c103 -53 161 -158 161 -292 0 -188 -128 -318 -301 -306 -86 6 -154 46 -201
116 -62 93 -75 193 -39 307 26 86 99 165 175 189 62 20 150 14 205 -14z m466
-167 c117 -101 214 -183 217 -183 4 0 6 86 6 190 l0 190 55 0 55 0 0 -315 c0
-173 -3 -315 -7 -315 -5 0 -107 86 -228 190 l-220 190 -3 -190 -2 -190 -55 0
-55 0 0 316 c0 249 3 314 13 308 6 -4 107 -90 224 -191z m839 178 c70 -32 108
-124 85 -206 -9 -34 -8 -42 9 -60 67 -72 66 -220 -3 -293 -46 -49 -62 -52
-292 -52 l-215 0 0 315 0 315 188 0 c161 0 193 -3 228 -19z m619 -296 c75
-164 139 -303 141 -307 3 -4 -24 -8 -59 -8 l-64 0 -78 173 c-43 94 -81 175
-84 179 -3 3 -42 -74 -86 -173 l-80 -179 -63 0 c-35 0 -62 4 -60 9 37 95 284
619 289 614 5 -5 69 -143 144 -308z m612 289 c42 -31 73 -83 73 -120 l0 -34
-55 0 c-35 0 -55 4 -55 12 0 6 -7 20 -17 30 -14 15 -32 18 -132 18 -128 0
-161 -11 -161 -55 0 -48 21 -55 156 -55 103 0 131 -3 162 -19 69 -35 102 -95
102 -186 0 -79 -39 -148 -102 -181 -42 -22 -282 -19 -328 4 -45 22 -90 88 -97
140 l-6 42 57 0 c41 0 56 -4 56 -14 0 -7 9 -25 21 -40 20 -25 23 -26 132 -26
100 0 113 2 134 22 30 28 32 87 2 114 -18 16 -42 20 -164 24 -143 5 -144 5
-176 35 -58 55 -75 137 -44 212 39 92 69 104 262 100 136 -2 155 -4 180 -23z
m733 -34 l0 -60 -210 0 c-197 0 -211 -1 -230 -20 -12 -12 -20 -33 -20 -55 l0
-35 180 0 180 0 0 -60 0 -60 -180 0 -180 0 0 -62 c0 -100 -5 -98 247 -98 l213
0 0 -61 0 -60 -241 3 -241 3 -33 37 c-49 53 -57 96 -53 297 3 165 4 178 27
215 43 68 73 76 324 76 l217 0 0 -60z m-6616 -742 c29 -15 36 -28 36 -65 0
-31 -2 -33 -35 -33 -32 0 -35 2 -35 30 0 33 -22 50 -65 50 -59 0 -65 -11 -65
-120 0 -88 2 -100 19 -110 44 -23 111 -5 111 30 0 16 7 20 35 20 30 0 35 -3
35 -24 0 -14 -7 -32 -15 -40 -39 -38 -170 -44 -222 -10 -22 14 -23 21 -23 133
0 130 3 137 63 152 39 10 131 3 161 -13z m646 11 c30 -6 54 -18 60 -29 6 -10
10 -66 10 -124 0 -127 -8 -140 -92 -150 -68 -9 -138 6 -160 35 -26 31 -26 207
0 239 29 36 99 47 182 29z m2057 -15 c22 -14 23 -21 23 -134 0 -119 0 -120
-27 -137 -20 -13 -47 -18 -103 -18 -56 0 -83 5 -103 18 -27 17 -27 18 -27 136
0 132 3 138 68 152 50 11 142 2 169 -17z m3117 4 c33 -17 36 -27 36 -140 0
-137 -14 -153 -135 -153 -122 0 -135 16 -135 155 0 118 7 135 58 146 15 3 32
8 37 10 17 6 116 -6 139 -18z m-4464 -6 c31 -15 35 -22 38 -61 5 -62 -5 -90
-33 -103 l-24 -11 40 -46 c21 -26 39 -50 39 -54 0 -4 -15 -7 -32 -7 -27 0 -40
9 -73 50 -30 37 -47 49 -67 50 -27 0 -28 -2 -28 -50 0 -49 -1 -50 -30 -50
l-30 0 0 150 0 150 83 0 c58 0 92 -5 117 -18z m679 -6 c17 -15 21 -31 21 -80
0 -34 -4 -66 -8 -73 -12 -20 -60 -33 -118 -33 l-54 0 0 -45 c0 -43 -1 -45 -30
-45 l-30 0 0 151 0 151 99 -4 c80 -2 103 -7 120 -22z m1350 0 c17 -15 21 -31
21 -77 0 -51 -3 -60 -27 -77 l-26 -19 41 -45 c23 -25 42 -48 42 -52 0 -3 -15
-6 -34 -6 -29 0 -41 8 -77 50 -32 38 -49 50 -71 50 -27 0 -28 -2 -28 -50 0
-49 -1 -50 -30 -50 l-30 0 0 151 0 151 99 -4 c80 -2 103 -7 120 -22z m639 -58
c17 -46 42 -113 56 -150 l26 -68 -34 0 c-30 0 -36 4 -46 35 l-12 35 -67 0 -67
0 -13 -35 c-10 -29 -17 -35 -42 -35 -16 0 -29 4 -29 9 0 10 96 267 105 282 4
5 26 9 49 9 l43 0 31 -82z m642 62 c0 -17 -7 -20 -50 -20 l-50 0 0 -130 0
-130 -30 0 -30 0 0 130 0 130 -50 0 c-43 0 -50 3 -50 20 0 19 7 20 130 20 123
0 130 -1 130 -20z m510 0 c0 -13 -7 -20 -20 -20 -19 0 -20 -7 -20 -110 0 -103
1 -110 20 -110 13 0 20 -7 20 -20 0 -18 -7 -20 -70 -20 -63 0 -70 2 -70 20 0
13 7 20 20 20 19 0 20 7 20 110 0 103 -1 110 -20 110 -13 0 -20 7 -20 20 0 18
7 20 70 20 63 0 70 -2 70 -20z m1251 -82 l74 -102 3 102 3 102 29 0 30 0 0
-150 0 -150 -30 0 c-27 0 -39 12 -105 102 l-75 102 0 -102 0 -102 -35 0 -35 0
0 150 0 150 33 0 c31 0 39 -8 108 -102z"/>
<path d="M1396 2390 c-37 -12 -94 -66 -112 -107 -32 -75 -7 -184 55 -236 110
-92 270 0 271 156 0 81 -59 167 -131 187 -39 11 -44 11 -83 0z"/>
<path d="M3995 2381 c-116 -54 -150 -193 -73 -304 39 -55 137 -84 191 -56 73
38 124 134 111 209 -21 121 -135 196 -229 151z"/>
<path d="M5170 2345 l0 -55 125 0 c112 0 127 2 145 20 11 11 20 27 20 35 0 8
-9 24 -20 35 -18 18 -33 20 -145 20 l-125 0 0 -55z"/>
<path d="M5170 2090 l0 -80 149 0 150 0 20 26 c12 15 21 39 21 54 0 15 -9 39
-21 54 l-20 26 -150 0 -149 0 0 -80z"/>
<path d="M1358 1689 c-15 -8 -18 -25 -18 -109 0 -111 5 -120 74 -120 56 0 66
18 66 120 0 67 -4 92 -16 104 -17 18 -80 21 -106 5z"/>
<path d="M3368 1689 c-15 -8 -18 -25 -18 -109 0 -110 6 -120 70 -120 64 0 70
10 70 120 0 88 -2 100 -19 110 -25 13 -81 13 -103 -1z"/>
<path d="M6498 1690 c-15 -9 -18 -27 -18 -115 l0 -104 35 -7 c40 -7 86 2 97
19 11 17 10 179 -1 196 -11 17 -91 25 -113 11z"/>
<path d="M2040 1630 l0 -60 44 0 c51 0 76 19 76 56 0 49 -16 64 -70 64 l-50 0
0 -60z"/>
<path d="M2700 1625 l0 -65 44 0 c69 0 76 6 76 59 0 26 -5 52 -12 59 -7 7 -34
12 -60 12 l-48 0 0 -65z"/>
<path d="M4050 1630 l0 -60 48 0 c57 0 72 12 72 60 0 48 -15 60 -72 60 l-48 0
0 -60z"/>
<path d="M4746 1608 c-10 -29 -21 -59 -23 -65 -4 -9 9 -13 46 -13 28 0 51 3
51 6 0 15 -43 124 -49 124 -3 0 -15 -24 -25 -52z"/>
</g>
</svg>
